<?xml version="1.0" standalone="no"?>
<!DOCTYPE svg PUBLIC "-//W3C//DTD SVG 20010904//EN"
 "http://www.w3.org/TR/2001/REC-SVG-20010904/DTD/svg10.dtd">
<svg version="1.0" xmlns="http://www.w3.org/2000/svg"
 width="905.000000pt" height="685.000000pt" viewBox="0 0 905.000000 685.000000"
 preserveAspectRatio="xMidYMid meet">

<g transform="translate(0.000000,685.000000) scale(0.100000,-0.100000)"
fill="#000000" stroke="none">
<path d="M0 3425 l0 -3425 4525 0 4525 0 0 3425 0 3425 -4525 0 -4525 0 0
-3425z m4295 1975 c61 -63 148 -157 194 -208 79 -86 105 -105 113 -83 2 5 95
105 208 222 288 301 323 336 314 319 -10 -20 -213 -302 -346 -481 -59 -81
-108 -151 -108 -156 0 -5 23 -33 52 -62 l51 -52 64 63 c34 34 63 67 63 73 0 6
-13 24 -30 40 -16 16 -30 33 -30 39 0 6 118 127 262 269 l261 258 49 -48 c26
-26 48 -54 48 -62 0 -8 -147 -163 -327 -344 l-327 -329 51 -49 c59 -56 89 -62
153 -29 75 39 153 16 191 -55 37 -70 10 -143 -68 -181 -29 -15 -55 -18 -110
-16 l-73 4 0 47 c0 35 -8 59 -30 95 -42 66 -119 146 -141 146 -9 0 -45 -30
-78 -67 l-61 -67 27 -28 c25 -26 25 -28 9 -53 -20 -30 -25 -31 -71 -4 l-35 21
-74 -76 c-41 -42 -79 -76 -85 -76 -5 0 -14 8 -20 18 -8 14 3 30 66 93 l75 77
-77 66 c-43 36 -85 66 -94 66 -9 0 -41 -34 -71 -76 -30 -42 -69 -95 -85 -118
-35 -47 -93 -82 -168 -102 -57 -15 -237 -19 -237 -5 0 5 34 12 75 16 66 6 78
10 92 32 15 23 15 28 -1 72 -20 57 -14 98 23 142 23 27 35 33 82 36 40 4 66
-1 102 -16 67 -29 83 -27 125 15 l36 36 -134 132 c-325 317 -472 490 -501 587
-14 46 -1 69 39 69 30 0 61 -32 200 -210 89 -113 317 -364 421 -465 l41 -39
55 54 55 55 -47 70 c-25 39 -125 177 -222 309 -97 131 -182 248 -190 260 -15
23 72 -64 244 -244z m-297 -422 c4 -35 -17 -46 -110 -58 -119 -15 -234 -39
-395 -81 -359 -93 -601 -204 -828 -378 l-60 -46 -938 0 c-823 0 -939 2 -947
15 -13 21 -12 26 6 44 14 14 112 16 932 16 909 0 917 1 942 21 59 48 242 165
322 205 242 121 596 227 968 288 14 2 43 3 65 2 36 -1 40 -4 43 -28z m1258 17
c100 -18 450 -104 552 -136 234 -75 442 -178 627 -311 l80 -58 901 0 c776 0
903 -2 914 -15 18 -21 8 -48 -20 -56 -14 -4 -430 -7 -925 -8 l-900 -1 -50 42
c-173 143 -464 282 -787 373 -119 34 -248 61 -423 90 -120 20 -145 29 -145 53
0 45 36 51 176 27z m2173 -709 c10 -12 8 -17 -8 -25 -25 -14 -5769 -15 -5790
-2 -8 5 -11 16 -8 25 6 15 256 16 2900 16 2498 0 2896 -2 2906 -14z m-6140
-36 c145 -24 256 -119 297 -256 7 -25 23 -58 35 -75 l21 -30 -31 -62 c-16 -34
-36 -84 -42 -111 -7 -27 -27 -70 -45 -96 l-32 -47 33 -17 c45 -24 69 -60 99
-146 13 -40 34 -83 46 -95 l21 -22 -21 -36 c-12 -20 -37 -80 -55 -133 -60
-173 -169 -301 -320 -379 -66 -33 -90 -40 -151 -43 -64 -4 -75 -7 -89 -28 -15
-23 -87 -50 -105 -39 -5 3 -27 -8 -49 -25 -31 -25 -46 -31 -77 -28 -31 2 -42
9 -52 31 -19 39 -8 77 21 77 27 0 64 32 78 67 5 13 9 150 9 305 0 304 -4 327
-55 359 l-26 15 27 30 c54 60 57 79 57 340 1 210 -1 245 -16 268 -23 35 -52
49 -76 37 -10 -6 -21 -7 -25 -4 -12 13 -6 59 13 89 27 43 66 55 120 37 31 -10
46 -12 54 -4 16 16 89 13 111 -4 15 -11 23 -12 40 -2 20 11 90 34 111 36 6 0
39 -4 74 -9z m6376 -25 c16 -10 27 -9 63 8 43 18 46 18 83 1 32 -14 44 -15 65
-6 74 34 144 -4 144 -77 0 -40 0 -40 -32 -34 -62 12 -74 -58 -38 -222 11 -49
27 -130 36 -180 19 -110 43 -168 92 -218 l37 -38 -21 -17 c-12 -9 -27 -27 -33
-40 -14 -26 -12 -36 54 -327 25 -110 45 -207 45 -216 0 -27 32 -123 47 -141 8
-9 30 -19 49 -22 31 -6 34 -10 34 -44 0 -83 -64 -109 -122 -51 -22 22 -37 29
-53 25 -31 -8 -85 10 -102 34 -11 15 -25 20 -61 20 -75 0 -122 48 -122 124 0
35 0 35 28 20 31 -16 48 -18 56 -5 6 10 -37 248 -47 258 -6 6 -330 84 -333 80
-7 -12 -34 -144 -34 -170 0 -40 30 -71 80 -84 28 -7 36 -15 38 -36 5 -44 -14
-67 -56 -67 -20 0 -46 7 -56 15 -11 8 -34 15 -51 15 -17 0 -40 7 -51 15 -10 8
-35 15 -56 15 -49 0 -88 45 -88 101 l0 40 30 -16 c36 -19 64 -19 79 -1 19 23
114 416 115 473 0 41 -5 57 -22 76 -29 30 -27 38 10 62 47 30 65 76 109 281
48 220 46 240 -21 231 l-40 -5 0 43 c0 86 72 127 145 80z m-2710 -96 c13 -13
11 -196 -3 -231 -10 -23 -18 -28 -47 -28 -33 0 -35 2 -35 33 0 114 -72 178
-165 147 -53 -18 -65 -43 -66 -143 0 -47 2 -91 6 -96 10 -17 72 -13 89 5 9 8
16 31 16 50 0 21 5 34 13 34 53 0 88 -101 67 -193 -18 -75 -26 -87 -60 -87
-29 0 -30 2 -30 44 0 52 -16 69 -62 64 l-33 -3 -3 -122 c-2 -112 -1 -124 18
-143 15 -15 33 -20 78 -20 101 0 149 49 159 162 10 110 47 101 86 -20 20 -63
23 -88 17 -137 -9 -77 -17 -94 -46 -101 -33 -8 -54 2 -54 26 0 11 -2 20 -4 20
-3 0 -35 -6 -73 -13 -44 -9 -133 -13 -250 -12 -190 2 -213 7 -213 46 0 15 7
19 35 19 48 0 55 19 55 154 0 113 -1 117 -28 147 l-28 31 28 28 c27 28 28 32
28 134 0 94 -2 108 -21 127 -14 14 -28 19 -45 15 -21 -6 -24 -3 -24 18 0 15 8
30 19 36 21 11 430 7 468 -5 16 -5 23 -2 28 15 6 19 12 21 38 16 17 -4 36 -11
42 -17z m-965 -14 c58 -19 115 -66 140 -114 10 -21 26 -43 34 -50 14 -12 12
-18 -14 -56 -17 -24 -30 -48 -30 -54 0 -5 -12 -24 -26 -41 -26 -30 -26 -31 -8
-46 11 -8 27 -19 36 -24 10 -6 27 -33 39 -61 12 -27 29 -53 37 -58 14 -8 14
-11 2 -26 -8 -10 -28 -43 -45 -74 -36 -67 -102 -120 -183 -146 -43 -14 -97
-20 -217 -23 -88 -2 -175 -4 -194 -4 -22 -1 -38 5 -47 17 -22 30 -17 45 14 45
37 0 60 19 62 50 1 14 2 78 1 143 l-1 117 -30 18 -30 19 30 22 30 22 0 128 c0
140 0 141 -61 141 -32 0 -37 15 -15 45 13 18 28 20 159 20 80 0 149 4 154 9
11 11 106 0 163 -19z m-834 -19 c57 -26 90 -66 110 -133 8 -25 23 -53 35 -61
l20 -14 -20 -22 c-11 -12 -27 -42 -36 -66 -9 -25 -34 -63 -56 -86 l-40 -40 24
-13 c38 -20 59 -68 68 -152 11 -115 13 -119 59 -119 21 0 42 -5 45 -10 12 -20
-7 -49 -38 -59 -43 -13 -199 -23 -213 -14 -24 17 -36 59 -44 159 -10 134 -30
163 -112 164 l-48 0 0 -129 c0 -143 9 -167 56 -155 21 5 24 3 24 -19 0 -39
-25 -50 -144 -64 -61 -7 -127 -16 -147 -19 -67 -11 -96 54 -30 67 18 4 37 13
42 21 5 7 9 81 9 165 l0 151 -27 20 -27 20 27 32 c26 31 27 35 27 164 0 145
-4 156 -57 156 -26 0 -33 4 -33 19 0 37 27 51 98 52 178 3 222 6 229 13 14 15
146 -4 199 -28z m2414 25 c64 5 84 1 101 -20 19 -23 16 -52 -5 -50 -6 1 -19 1
-28 0 -27 -2 -23 -51 14 -170 30 -96 35 -105 72 -129 l40 -25 -27 -14 c-15 -7
-27 -19 -27 -26 0 -30 94 -291 111 -308 11 -11 30 -19 44 -19 18 0 25 -5 25
-19 0 -33 -29 -54 -64 -46 -40 9 -95 14 -177 19 -80 4 -109 18 -109 51 0 22 5
25 34 25 l33 0 -17 63 -17 62 -128 9 c-141 10 -139 10 -151 -53 -9 -46 6 -66
47 -66 28 -1 35 -5 37 -24 2 -13 -2 -28 -10 -32 -17 -12 -239 0 -255 13 -7 6
-13 22 -13 35 0 23 3 25 34 19 24 -5 39 -2 49 8 22 22 98 262 90 283 -4 10
-15 25 -25 33 -18 14 -17 16 15 33 19 11 40 31 47 45 22 50 60 177 60 205 0
24 -3 27 -36 27 -33 0 -35 2 -32 27 4 40 32 49 144 45 54 -1 110 -2 124 -1z
m935 -32 c59 -31 110 -93 125 -152 12 -45 23 -72 42 -99 10 -14 9 -20 -4 -35
-9 -10 -26 -44 -38 -75 -14 -37 -34 -68 -56 -86 l-34 -29 20 -18 c46 -42 61
-81 69 -187 11 -126 23 -156 67 -164 37 -7 49 -26 33 -56 -10 -18 -17 -20 -58
-14 -25 4 -74 11 -109 16 -102 13 -122 47 -122 205 0 130 -35 187 -123 202
l-37 6 0 -136 c0 -147 7 -167 56 -167 27 0 32 -25 11 -54 -11 -15 -21 -17 -48
-12 -19 4 -85 13 -148 22 -118 15 -151 29 -151 66 0 14 8 18 39 18 49 0 51 5
51 178 l0 134 -32 31 c-18 16 -28 32 -22 34 45 15 49 28 52 153 5 158 3 166
-48 174 -31 5 -40 11 -40 26 0 41 27 46 247 45 204 0 209 -1 258 -26z m-4209
-4 c32 -32 28 -59 -9 -63 -42 -5 -47 -28 -26 -107 10 -38 26 -98 35 -133 15
-55 22 -67 56 -90 32 -21 37 -28 26 -36 -41 -31 -41 -49 8 -198 25 -79 53
-151 61 -160 11 -12 24 -15 44 -11 27 5 29 3 29 -25 0 -38 -20 -50 -99 -63
-69 -12 -145 -26 -189 -35 -38 -8 -62 8 -62 41 0 18 7 25 30 30 27 6 30 10 29
43 -1 43 -22 107 -35 107 -5 0 -60 -9 -122 -19 -129 -22 -139 -29 -148 -113
-8 -60 11 -83 52 -64 14 6 27 11 29 11 12 0 3 -60 -11 -74 -16 -17 -20 -18
-119 -37 -33 -6 -68 -15 -78 -21 -26 -14 -54 -1 -60 28 -5 30 15 54 48 54 27
0 37 24 84 210 44 175 47 204 23 228 l-21 21 33 34 c34 36 61 113 91 260 17
84 13 97 -31 97 -30 0 -34 3 -34 25 0 14 10 36 23 49 21 21 30 22 132 21 61
-1 121 2 135 6 41 12 50 10 76 -16z m4699 4 c46 0 99 0 145 1 64 1 100 -23
100 -66 0 -23 -3 -25 -25 -20 -17 4 -31 0 -45 -14 -18 -18 -20 -33 -20 -175
l0 -155 29 -32 29 -32 -30 -29 -29 -30 3 -184 c3 -169 5 -186 22 -199 11 -8
31 -14 44 -14 20 0 23 -4 20 -27 -2 -17 -13 -33 -30 -43 -25 -13 -31 -13 -60
2 -18 9 -51 19 -73 22 -126 16 -160 25 -182 51 -13 14 -23 35 -23 46 0 17 4
20 29 14 55 -12 61 6 61 194 l0 167 -28 33 -28 34 28 28 c28 27 28 28 28 166
0 160 -8 186 -58 191 -26 3 -32 8 -32 26 0 34 37 57 80 50 19 -3 40 -5 45 -5z
m-1775 -853 c600 -45 1135 -131 1705 -272 253 -62 265 -67 265 -93 0 -17 -5
-19 -37 -14 -21 2 -94 20 -163 39 -414 113 -968 211 -1475 263 -1078 110
-2285 33 -3390 -214 -133 -30 -351 -75 -428 -88 -24 -4 -28 -1 -25 17 4 25 45
36 418 115 411 88 877 166 1200 200 58 7 141 16 185 21 67 8 372 29 625 44
155 9 928 -4 1120 -18z m-35 -147 c12 -12 52 -11 60 1 12 19 25 10 25 -17 0
-53 -31 -70 -86 -47 -21 9 -48 13 -65 9 -26 -6 -29 -4 -29 19 0 45 60 67 95
35z m-790 -80 c5 -5 1 -9 -12 -9 -11 0 -24 -7 -27 -16 -10 -27 -7 -83 8 -118
10 -23 11 -38 4 -51 -6 -10 -8 -41 -4 -70 5 -47 3 -55 -20 -79 -64 -63 -171
-57 -201 12 -8 20 -20 45 -25 55 -12 24 -8 28 39 34 31 4 40 1 51 -16 10 -18
10 -22 -3 -27 -19 -8 -20 -48 -1 -63 8 -7 25 -9 40 -5 25 6 26 9 26 78 0 40
-5 77 -11 83 -7 7 -8 22 0 48 15 56 4 122 -23 129 -33 9 -7 24 49 28 57 4 96
-1 110 -13z m392 -9 c36 -22 47 -39 73 -116 17 -53 17 -57 -2 -116 -10 -34
-30 -77 -43 -94 -68 -89 -221 -60 -258 48 -41 119 -40 111 -9 180 40 89 78
118 150 118 39 0 67 -6 89 -20z m461 -5 c24 -6 31 -25 8 -25 -8 0 -18 -4 -21
-10 -9 -15 23 -133 40 -146 10 -7 11 -14 4 -21 -7 -7 -4 -36 12 -92 18 -65 26
-81 41 -81 11 0 16 -4 13 -10 -8 -13 -135 -13 -155 0 -13 9 -13 12 3 21 21 12
22 42 1 63 -11 11 -35 16 -79 16 -59 0 -63 -2 -69 -25 -8 -30 -1 -45 20 -45
17 0 19 -19 2 -21 -33 -4 -104 4 -112 11 -5 5 2 12 16 15 20 5 32 22 53 71 18
41 25 73 21 89 -5 18 -1 27 13 34 37 20 68 141 36 141 -17 0 -21 16 -5 22 13
4 129 -1 158 -7z m-1450 -27 c14 -13 38 -51 53 -85 26 -55 28 -67 19 -110 -23
-120 -62 -165 -150 -171 -90 -7 -137 30 -172 134 -16 47 -17 65 -9 106 19 85
57 135 116 151 41 12 118 -2 143 -25z m1912 -27 c45 -23 68 -64 80 -137 7 -43
6 -67 -3 -88 -50 -120 -83 -151 -160 -150 -103 1 -161 60 -170 172 -5 60 -3
69 30 124 19 33 49 68 66 79 41 24 112 25 157 0z m-2406 -6 c34 -18 48 -36 85
-110 17 -33 24 -59 19 -67 -4 -7 -8 -29 -8 -48 0 -51 -37 -115 -80 -136 -35
-17 -217 -47 -232 -38 -14 9 -9 24 8 24 15 0 16 10 10 77 -5 52 -12 81 -22 86
-10 6 -12 13 -4 27 6 10 7 45 3 79 -5 54 -9 62 -30 67 -39 10 -13 24 73 38
108 18 144 18 178 1z m-944 -241 c388 -395 950 -652 1638 -749 176 -25 182
-25 353 -34 467 -23 942 42 1369 187 424 145 717 314 972 561 l98 94 52 -6
c154 -19 1147 -301 1400 -398 82 -32 102 -48 96 -76 -6 -31 -41 -26 -214 32
-353 117 -1043 316 -1218 351 l-86 17 -83 -79 c-315 -303 -766 -533 -1292
-659 -283 -68 -478 -93 -786 -102 -755 -20 -1455 158 -1984 505 -150 98 -308
225 -373 299 l-49 56 -259 -57 c-393 -87 -908 -224 -1133 -301 -94 -32 -137
-33 -146 -4 -4 13 -2 27 6 35 22 21 782 238 1064 303 274 63 447 99 475 100
19 1 45 -18 100 -75z m2113 -195 c12 -6 32 -21 44 -32 l23 -20 26 26 c31 31
77 42 141 32 74 -11 142 -47 228 -119 228 -192 407 -230 461 -100 42 100 -25
198 -122 180 -41 -8 -57 -28 -52 -66 4 -24 2 -27 -9 -19 -7 7 -13 24 -13 39 0
66 111 95 180 47 77 -51 88 -135 29 -217 -63 -87 -189 -139 -358 -147 -128 -7
-223 8 -316 51 -84 39 -136 82 -172 143 l-26 45 -13 -31 c-22 -52 -90 -117
-154 -145 -202 -91 -566 -69 -684 42 -75 70 -76 182 -2 251 38 36 130 42 169
11 26 -21 34 -51 21 -84 -11 -28 -24 -17 -18 14 9 44 -9 60 -71 60 -89 0 -133
-60 -105 -144 27 -84 122 -123 222 -91 72 23 107 46 208 133 88 76 133 105
210 134 52 20 122 23 153 7z m-1360 -563 c132 -49 157 -66 157 -107 0 -44 -59
-198 -83 -214 -31 -22 -39 -20 -179 32 l-127 47 15 26 c21 38 84 210 86 236 1
13 5 24 8 24 3 0 58 -20 123 -44z m2894 16 c17 -11 53 -93 53 -123 0 -32 -17
-47 -97 -84 -42 -19 -63 -34 -63 -46 0 -10 4 -20 9 -23 9 -6 158 49 177 65 8
7 14 2 18 -17 4 -15 3 -30 -1 -34 -10 -9 -254 -101 -273 -103 -10 -2 -24 24
-43 83 l-29 84 26 21 c14 11 53 31 86 45 41 17 60 31 60 43 0 10 -8 17 -20 17
-22 0 -111 -33 -152 -56 -27 -14 -28 -14 -29 5 -1 12 -2 26 -3 32 -1 12 216
98 249 98 11 1 25 -3 32 -7z m-2562 -123 c116 -29 125 -33 125 -55 0 -28 -5
-28 -85 -9 -32 8 -61 13 -62 11 -2 -2 -8 -17 -12 -34 l-9 -30 64 -18 c48 -13
64 -21 64 -35 0 -27 -12 -29 -75 -13 -32 8 -61 12 -65 7 -4 -4 -10 -22 -13
-40 l-6 -32 74 -16 c41 -10 75 -20 75 -24 0 -4 -6 -15 -12 -24 -12 -16 -21
-15 -138 15 -69 17 -126 32 -127 32 0 1 14 57 33 125 19 69 34 135 34 148 0
13 2 23 5 23 3 0 62 -14 130 -31z m2239 -11 c21 -33 56 -159 56 -200 0 -50
-22 -65 -149 -100 -141 -39 -149 -35 -186 85 -30 98 -32 148 -7 169 21 20 184
66 234 67 29 1 41 -4 52 -21z m-1953 -53 c136 -25 129 -22 129 -56 0 -20 -4
-28 -11 -23 -23 14 -153 34 -162 25 -20 -20 2 -38 53 -45 63 -8 98 -24 105
-47 3 -9 1 -47 -6 -84 -16 -91 -25 -95 -177 -69 -115 19 -117 20 -120 47 -4
31 -7 31 78 12 88 -19 100 -19 100 4 0 20 -9 25 -70 36 -77 14 -90 24 -90 69
1 91 27 146 71 146 9 0 54 -7 100 -15z m1604 -25 c18 -20 44 -135 44 -202 1
-60 -20 -73 -153 -93 -107 -16 -118 -16 -140 -1 -30 19 -44 65 -52 171 -8 102
1 111 118 130 125 19 162 18 183 -5z m-1279 -21 c64 -6 119 -17 133 -26 23
-15 24 -17 18 -125 -6 -118 -19 -154 -59 -160 -26 -3 -266 17 -272 23 -2 2 0
28 4 56 5 29 12 96 16 148 8 110 -10 101 160 84z m918 -31 c23 -33 22 -144 -1
-157 -14 -7 -142 -31 -167 -31 -3 0 -6 -12 -6 -26 l0 -26 78 7 c42 3 87 9 100
12 19 4 22 1 22 -24 l0 -30 -152 -11 c-116 -8 -155 -7 -160 1 -4 7 -8 47 -8
89 0 94 9 102 115 113 71 7 88 16 78 42 -5 12 -20 13 -77 8 -39 -3 -83 -8 -98
-11 -26 -5 -28 -3 -28 25 0 29 2 30 53 34 28 2 93 4 144 5 85 2 93 0 107 -20z
m-452 -4 c4 -3 8 -16 8 -29 0 -17 -5 -22 -17 -20 -10 2 -44 6 -75 9 l-58 5 0
-40 0 -39 68 0 69 0 -5 -28 c-4 -28 -4 -28 -73 -24 l-69 4 0 -41 0 -41 79 0
79 0 -7 -27 c-6 -22 -13 -28 -32 -26 -13 0 -69 2 -124 3 -125 3 -126 3 -114
43 5 18 9 85 9 151 l0 119 127 -7 c70 -4 130 -9 135 -12z"/>
<path d="M3725 5570 c-8 -13 3 -30 20 -30 14 0 27 24 18 34 -10 9 -31 7 -38
-4z"/>
<path d="M4562 5003 c2 -22 8 -28 28 -28 20 0 25 5 25 25 0 20 -6 26 -28 28
-26 3 -28 1 -25 -25z"/>
<path d="M4565 4880 c-13 -15 -31 -20 -67 -20 -26 0 -48 -4 -48 -8 0 -12 130
-122 144 -122 6 0 41 29 76 65 l64 65 -54 0 c-40 0 -59 5 -75 20 l-22 20 -18
-20z"/>
<path d="M4063 4763 c-37 -7 -73 -59 -73 -105 0 -119 179 -136 205 -18 10 44
-18 98 -59 115 -20 8 -39 14 -43 14 -4 -1 -18 -4 -30 -6z"/>
<path d="M5030 4757 c-66 -33 -66 -141 0 -180 43 -26 85 -21 122 12 28 25 33
36 33 76 0 40 -5 51 -33 76 -35 32 -79 38 -122 16z"/>
<path d="M4565 4680 c-4 -7 -3 -16 3 -22 14 -14 45 -2 40 15 -6 16 -34 21 -43
7z"/>
<path d="M1172 4088 c-38 -41 -42 -72 -42 -299 l0 -220 53 7 c70 9 112 27 132
57 17 26 35 155 35 254 0 145 -41 223 -117 223 -28 0 -46 -7 -61 -22z"/>
<path d="M1405 3875 c0 -107 3 -195 6 -195 8 0 29 81 29 110 0 12 7 37 16 55
14 29 14 37 1 62 -8 15 -17 48 -21 73 -4 25 -13 55 -19 68 -11 18 -13 -12 -12
-173z"/>
<path d="M950 3727 c0 -135 -4 -187 -16 -224 -15 -43 -15 -49 0 -74 13 -23 16
-64 16 -256 1 -299 18 -276 30 39 9 258 -2 664 -19 681 -8 8 -11 -39 -11 -166z"/>
<path d="M1185 3447 l-50 -12 -3 -245 c-2 -158 1 -258 8 -283 20 -69 80 -74
149 -12 62 56 73 109 69 324 -3 178 -3 181 -29 206 -31 31 -77 38 -144 22z"/>
<path d="M1424 3224 c-1 -118 0 -213 3 -210 2 2 13 44 24 93 10 48 24 100 30
116 9 20 8 31 -1 42 -7 8 -19 45 -26 81 -8 36 -17 72 -22 79 -4 8 -8 -83 -8
-201z"/>
<path d="M7637 3633 c-37 -175 -68 -325 -67 -333 0 -11 34 -22 133 -42 72 -14
133 -25 135 -23 2 2 -123 681 -131 708 -2 5 -33 -134 -70 -310z"/>
<path d="M7787 3900 c8 -60 142 -720 168 -830 l25 -105 -4 80 c-3 44 -15 121
-27 170 -15 60 -23 122 -24 186 0 69 -5 102 -16 120 -23 35 -37 80 -63 210
-14 64 -33 136 -44 160 l-21 44 6 -35z"/>
<path d="M4500 3915 c1 -33 1 -129 1 -214 0 -85 2 -157 4 -160 16 -15 20 31
20 209 0 150 -3 202 -13 212 -11 11 -13 2 -12 -47z"/>
<path d="M3823 4050 c-36 -15 -44 -43 -41 -152 l3 -103 57 0 c72 0 94 19 103
86 18 128 -37 203 -122 169z"/>
<path d="M3998 3932 c-1 -50 0 -92 4 -92 4 0 12 24 19 54 10 46 9 60 -4 93
l-15 38 -4 -93z"/>
<path d="M3649 3935 c0 -11 -1 -50 -2 -86 -2 -37 -8 -73 -15 -81 -9 -11 -9
-17 0 -26 7 -7 14 -59 16 -124 4 -71 8 -104 13 -88 11 38 10 393 -1 410 -8 12
-10 12 -11 -5z"/>
<path d="M3812 3719 l-34 -10 4 -125 c3 -120 4 -127 28 -146 31 -25 93 -19
124 11 41 41 32 237 -12 260 -30 15 -76 20 -110 10z"/>
<path d="M4011 3593 c-1 -57 1 -103 3 -103 3 0 12 25 21 55 12 43 13 60 4 77
-6 12 -15 33 -20 47 -4 17 -8 -11 -8 -76z"/>
<path d="M2973 4043 c-13 -2 -32 -16 -43 -30 -18 -23 -20 -40 -20 -154 0 -120
1 -129 21 -140 29 -15 103 -3 125 22 14 16 19 41 22 112 5 114 -9 174 -44 187
-14 6 -28 9 -32 9 -4 -1 -17 -4 -29 -6z"/>
<path d="M3132 3875 c0 -66 1 -115 3 -110 35 109 35 109 15 171 l-18 59 0
-120z"/>
<path d="M2780 3910 c-12 -109 -12 -205 -3 -355 7 -111 9 -116 15 -65 10 73 9
355 -1 405 -7 31 -9 34 -11 15z"/>
<path d="M3134 3491 c2 -46 10 -88 16 -95 17 -15 8 132 -9 159 -10 16 -11 5
-7 -64z"/>
<path d="M5438 3944 c-9 -15 -100 -326 -96 -329 2 -1 47 -5 101 -9 77 -6 97
-4 97 6 -1 27 -97 341 -102 332z"/>
<path d="M5514 3915 c17 -74 131 -427 134 -413 2 9 -6 48 -17 86 -12 38 -21
87 -21 109 0 23 -6 46 -14 53 -8 6 -27 48 -42 93 -27 84 -53 129 -40 72z"/>
<path d="M6300 4010 c-18 -18 -20 -33 -20 -159 0 -155 2 -159 68 -168 85 -11
108 39 97 203 -5 81 -11 107 -26 123 -26 28 -91 29 -119 1z"/>
<path d="M6500 3835 c0 -65 3 -116 6 -112 8 8 26 85 26 112 0 27 -18 104 -26
112 -3 4 -6 -47 -6 -112z"/>
<path d="M6148 3833 c-3 -51 -11 -99 -17 -107 -8 -10 -9 -21 0 -42 6 -16 13
-78 17 -139 9 -155 20 -79 20 135 0 205 -11 292 -20 153z"/>
<path d="M6505 3405 c4 -55 11 -104 16 -110 13 -13 0 174 -13 195 -6 9 -7 -22
-3 -85z"/>
<path d="M2066 3868 c-20 -72 -96 -411 -93 -415 6 -5 184 19 196 26 8 5 -82
397 -93 409 -2 1 -6 -8 -10 -20z"/>
<path d="M2140 3883 c0 -20 87 -353 113 -433 31 -92 36 -56 7 45 -11 39 -20
88 -18 111 1 28 -5 50 -19 70 -12 17 -30 64 -41 105 -18 72 -41 128 -42 102z"/>
<path d="M7017 3767 c-4 -59 -12 -117 -17 -128 -8 -13 -7 -25 0 -39 6 -11 14
-82 18 -158 l7 -137 6 105 c9 139 8 397 0 435 -5 21 -9 -4 -14 -78z"/>
<path d="M5127 3073 c-4 -3 10 -13 30 -21 59 -22 80 -25 87 -13 5 7 -2 11 -16
11 -13 1 -34 7 -48 15 -28 16 -43 18 -53 8z"/>
<path d="M4288 2888 c-7 -63 2 -194 13 -176 10 16 10 163 0 198 -6 21 -8 18
-13 -22z"/>
<path d="M4660 2975 c-18 -22 -24 -98 -10 -125 9 -16 9 -25 1 -33 -6 -6 -11
-37 -11 -69 0 -46 4 -61 22 -78 12 -11 29 -20 38 -20 41 0 66 74 50 146 -6 24
-5 43 0 48 16 16 12 99 -6 124 -18 26 -65 30 -84 7z"/>
<path d="M4570 2910 c-15 -35 -9 -175 8 -192 7 -7 10 16 9 78 -1 49 1 101 6
117 10 37 -7 35 -23 -3z"/>
<path d="M4781 2817 c-1 -83 2 -117 9 -107 12 18 13 217 1 224 -4 3 -9 -50
-10 -117z"/>
<path d="M5136 2915 c-15 -38 -56 -159 -56 -167 0 -4 25 -8 55 -8 52 0 55 1
50 23 -3 12 -14 56 -23 97 -14 58 -20 71 -26 55z"/>
<path d="M5174 2903 c3 -10 15 -61 27 -113 12 -52 25 -102 30 -110 14 -23 -2
121 -16 150 -7 14 -16 40 -20 58 -3 17 -11 32 -16 32 -6 0 -8 -8 -5 -17z"/>
<path d="M3661 2954 c-20 -15 -22 -22 -17 -73 3 -31 7 -90 8 -132 3 -85 22
-119 64 -119 49 0 69 75 39 146 -9 23 -12 42 -6 52 15 29 1 111 -23 127 -26
19 -36 19 -65 -1z"/>
<path d="M3781 2875 c-1 -86 10 -195 20 -189 13 8 9 142 -6 199 l-13 50 -1
-60z"/>
<path d="M3577 2890 c-21 -45 -22 -96 -5 -150 19 -55 49 -101 33 -50 -4 14
-10 68 -14 120 -4 52 -10 88 -14 80z"/>
<path d="M5599 2909 c-17 -17 -20 -31 -18 -77 1 -32 -3 -70 -10 -86 -6 -16
-11 -55 -9 -85 3 -51 5 -56 32 -66 24 -8 31 -6 51 17 26 30 39 96 26 132 -7
18 -6 28 5 36 17 15 19 121 2 138 -18 18 -56 14 -79 -9z"/>
<path d="M5504 2848 c-22 -49 -26 -160 -6 -180 10 -10 11 -3 6 32 -3 29 2 71
14 118 21 81 15 94 -14 30z"/>
<path d="M5721 2844 c-1 -17 -5 -44 -10 -60 -12 -39 -21 -154 -12 -154 19 0
46 186 32 220 -10 25 -10 25 -10 -6z"/>
<path d="M3170 2898 c1 -60 32 -294 41 -304 18 -21 57 -17 73 9 22 33 29 97
15 132 -6 17 -11 49 -10 73 2 35 -3 47 -27 72 -32 31 -92 43 -92 18z"/>
<path d="M3304 2865 c11 -28 26 -132 26 -185 0 -33 3 -41 10 -30 13 20 13 125
0 171 -6 20 -18 43 -27 50 -15 12 -16 12 -9 -6z"/>
<path d="M3104 2808 c3 -24 8 -70 12 -102 3 -33 10 -69 15 -80 10 -23 4 162
-7 202 -11 39 -25 24 -20 -20z"/>
<path d="M3082 1872 c-21 -41 -64 -174 -59 -179 4 -3 23 -6 43 -7 l36 -1 29
79 c17 44 28 85 25 92 -2 6 -18 16 -35 22 -26 9 -32 8 -39 -6z"/>
<path d="M5506 1757 c-19 -14 -19 -16 4 -98 13 -46 26 -88 30 -92 4 -5 26 -3
49 3 48 13 48 15 18 120 -21 70 -24 75 -52 78 -16 2 -39 -3 -49 -11z"/>
<path d="M5157 1688 c-15 -12 -16 -21 -4 -100 7 -48 16 -90 19 -94 4 -3 25 -3
47 1 39 6 41 8 41 43 0 19 -5 64 -11 99 -11 62 -12 63 -43 63 -18 0 -40 -6
-49 -12z"/>
<path d="M4016 1653 c-2 -10 -7 -53 -11 -97 -8 -86 -3 -96 47 -96 30 0 32 7
43 124 8 75 2 86 -47 86 -17 0 -28 -6 -32 -17z"/>
</g>
</svg>
